<svg width="203" height="26" viewBox="0 0 203 26" fill="none" xmlns="http://www.w3.org/2000/svg">
<path d="M91.058 13.0001C91.058 10.2479 91.058 7.49571 91.058 4.74353C91.058 4.52433 91.1197 4.40255 91.3173 4.28078C93.7874 2.89251 96.2451 1.47989 98.7028 0.0794427C98.8633 -0.0179795 98.9868 -0.0301618 99.1474 0.0672604C101.605 1.47988 104.063 2.88033 106.533 4.26859C106.743 4.39037 106.817 4.51215 106.817 4.7557C106.804 10.2479 106.804 15.7401 106.817 21.2322C106.817 21.488 106.73 21.6097 106.52 21.7315C104.063 23.1198 101.617 24.5202 99.1721 25.9207C99.0115 26.0181 98.888 26.0303 98.7275 25.9329C96.2574 24.5202 93.7874 23.1198 91.3173 21.7194C91.1321 21.6098 91.0703 21.488 91.0703 21.2809C91.058 18.5166 91.058 15.7522 91.058 13.0001ZM105.36 14.2422C105.236 14.3031 105.15 14.3518 105.063 14.4005C103.124 15.5087 101.173 16.6047 99.2338 17.725C99.0239 17.8468 98.8633 17.859 98.641 17.725C96.702 16.6047 94.7507 15.5087 92.8117 14.4005C92.7129 14.3518 92.6265 14.3031 92.503 14.2422C92.4906 14.3396 92.4783 14.4005 92.4783 14.4614C92.4783 16.4829 92.4783 18.5044 92.4783 20.5137C92.4783 20.7208 92.5771 20.806 92.7376 20.8913C94.726 22.0116 96.702 23.1441 98.6781 24.2767C98.8757 24.3863 99.0239 24.3863 99.2215 24.2767C101.185 23.1441 103.161 22.0238 105.137 20.9034C105.335 20.7938 105.409 20.6599 105.397 20.4407C105.384 18.4801 105.397 16.5316 105.397 14.571C105.384 14.4736 105.372 14.3761 105.36 14.2422ZM104.656 4.86531C104.569 4.80442 104.532 4.76788 104.483 4.74353C102.704 3.73277 100.913 2.70984 99.135 1.69909C98.9621 1.60166 98.8386 1.6382 98.6781 1.72344C96.9367 2.72202 95.1829 3.70842 93.4416 4.707C93.3675 4.74353 93.3057 4.79224 93.2193 4.85313C93.2687 4.88967 93.2934 4.92619 93.3304 4.93837C95.1336 5.97348 96.949 6.99642 98.7645 8.01935C98.851 8.06806 99.0239 8.05589 99.1227 7.995C99.876 7.58095 100.629 7.14255 101.37 6.71633C102.457 6.10744 103.532 5.49855 104.656 4.86531ZM92.4906 11.7823C94.1702 10.8202 95.8128 9.89473 97.4924 8.93269C95.8005 7.97064 94.1702 7.03295 92.4906 6.08308C92.4906 7.995 92.4906 9.85819 92.4906 11.7823ZM98.1964 15.8497C98.1964 13.9378 98.1964 12.0745 98.1964 10.1626C96.5291 11.1125 94.8865 12.0502 93.2069 13.0122C94.8989 13.9743 96.5291 14.8998 98.1964 15.8497ZM105.36 6.07091C103.68 7.03295 102.05 7.95846 100.358 8.9205C102.05 9.88255 103.692 10.8202 105.36 11.7701C105.36 9.8582 105.36 7.995 105.36 6.07091ZM99.6661 15.8497C101.346 14.8876 102.976 13.9621 104.668 13.0001C102.976 12.038 101.346 11.1003 99.6661 10.1626C99.6661 12.0745 99.6661 13.9378 99.6661 15.8497Z" fill="#2E7AF6"/>
<path d="M203 6.80142C203 10.9297 203 15.0214 203 19.1375C202.148 19.1375 201.296 19.1375 200.419 19.1375C200.419 16.6654 200.419 14.1933 200.419 11.7334C200.394 11.7212 200.369 11.7212 200.357 11.709C199.048 13.6209 197.739 15.5329 196.405 17.4691C195.071 15.5329 193.762 13.6209 192.453 11.7212C192.428 11.7334 192.404 11.7334 192.379 11.7456C192.379 14.2055 192.379 16.6532 192.379 19.1375C192.243 19.1496 192.144 19.1496 192.045 19.1496C191.403 19.1496 190.773 19.1375 190.131 19.1618C189.859 19.174 189.773 19.1009 189.773 18.8208C189.785 16.8602 189.785 14.8996 189.785 12.9512C189.785 11.0393 189.785 9.11519 189.785 7.20328C189.785 7.0815 189.785 6.95973 189.785 6.80142C190.415 6.80142 191.008 6.82577 191.601 6.78924C191.984 6.76488 192.194 6.91101 192.404 7.21546C193.663 9.10301 194.935 10.9662 196.22 12.8416C196.282 12.9268 196.343 12.9999 196.417 13.1095C196.504 12.9999 196.566 12.9025 196.627 12.8172C197.924 10.9053 199.233 8.98123 200.53 7.05715C200.666 6.8623 200.802 6.78924 201.036 6.78924C201.666 6.81359 202.308 6.80142 203 6.80142Z" fill="#2E7AF6"/>
<path d="M156.514 19.1618C155.798 19.1618 155.106 19.1739 154.427 19.1496C154.316 19.1496 154.18 19.0156 154.093 18.9182C152.167 16.4705 150.24 14.0228 148.313 11.5751C148.252 11.502 148.202 11.4411 148.091 11.3072C148.091 13.9497 148.091 16.5314 148.091 19.1374C147.19 19.1374 146.313 19.1374 145.423 19.1374C145.423 15.0457 145.423 10.954 145.423 6.82578C145.535 6.81361 145.646 6.81361 145.757 6.81361C146.35 6.81361 146.943 6.82579 147.548 6.80143C147.782 6.78926 147.931 6.8745 148.066 7.05716C149.907 9.4318 151.759 11.7943 153.612 14.1567C153.673 14.2298 153.735 14.3029 153.846 14.449C153.846 11.8673 153.846 9.37092 153.846 6.85014C154.76 6.85014 155.637 6.85014 156.526 6.85014C156.514 10.9297 156.514 15.0214 156.514 19.1618Z" fill="#2E7AF6"/>
<path d="M179.436 19.4297C176.509 19.4054 173.878 17.6275 173.076 15.0214C171.593 10.1869 175.385 6.83802 178.831 6.631C181.807 6.46051 184.425 7.84876 185.562 10.3817C187.377 14.4247 184.783 18.6138 180.72 19.308C180.288 19.3689 179.868 19.3932 179.436 19.4297ZM183.363 12.9878C183.363 10.7958 181.634 9.09089 179.448 9.09089C177.238 9.09089 175.533 10.8079 175.533 13.0243C175.533 15.2406 177.213 16.909 179.448 16.909C181.659 16.9212 183.363 15.2041 183.363 12.9878Z" fill="#2E7AF6"/>
<path d="M128.924 19.1619C128.973 19.0158 129.01 18.9183 129.047 18.8209C130.69 14.8997 132.332 10.9906 133.963 7.06939C134.049 6.86237 134.148 6.78931 134.37 6.78931C135.012 6.80148 135.642 6.80148 136.284 6.78931C136.457 6.78931 136.568 6.83802 136.643 7.0085C138.31 10.9906 139.977 14.9727 141.644 18.967C141.669 19.0158 141.669 19.0645 141.694 19.1375C141.57 19.1497 141.472 19.1619 141.373 19.1619C140.607 19.1619 139.854 19.1497 139.088 19.1741C138.841 19.1741 138.742 19.0888 138.656 18.8818C138.458 18.346 138.223 17.8345 138.026 17.2987C137.964 17.1404 137.878 17.0795 137.705 17.0795C136.112 17.0917 134.531 17.0917 132.938 17.0795C132.74 17.0795 132.666 17.1526 132.604 17.3231C132.394 17.8467 132.172 18.3703 131.974 18.9062C131.9 19.101 131.801 19.1741 131.591 19.1741C130.714 19.1497 129.85 19.1619 128.924 19.1619ZM135.321 10.4183C134.691 11.9648 134.098 13.414 133.493 14.8753C134.728 14.8753 135.902 14.8753 137.124 14.8753C136.531 13.4018 135.939 11.9527 135.321 10.4183Z" fill="#2E7AF6"/>
<path d="M126.182 6.80149C126.182 7.65393 126.182 8.44548 126.182 9.28575C124.366 9.28575 122.563 9.28575 120.748 9.28575C120.748 10.1382 120.748 10.9663 120.748 11.8187C122.39 11.8187 124.045 11.8187 125.7 11.8187C125.7 12.6346 125.7 13.414 125.7 14.2299C124.058 14.2299 122.415 14.2299 120.735 14.2299C120.735 15.8861 120.735 17.4935 120.735 19.1254C119.797 19.1254 118.895 19.1254 117.957 19.1254C117.957 19.0036 117.957 18.894 117.957 18.7844C117.957 14.9119 117.957 11.0393 117.944 7.16682C117.944 6.87456 118.018 6.78931 118.327 6.78931C120.834 6.80148 123.341 6.80149 125.848 6.80149C125.947 6.80149 126.046 6.80149 126.182 6.80149Z" fill="#2E7AF6"/>
<path d="M163.998 9.27366C162.837 9.27366 161.738 9.27366 160.602 9.27366C160.602 8.44557 160.602 7.64184 160.602 6.82593C163.751 6.82593 166.9 6.82593 170.062 6.82593C170.062 7.62966 170.062 8.43339 170.062 9.27366C168.975 9.27366 167.876 9.27366 166.752 9.27366C166.752 12.586 166.752 15.8496 166.752 19.1376C165.814 19.1376 164.924 19.1376 163.998 19.1376C163.998 15.874 163.998 12.5982 163.998 9.27366Z" fill="#2E7AF6"/>
<path d="M0 6.97217H3.668C4.17436 6.97217 4.66837 7.02088 5.12532 7.10613C5.58228 7.20355 5.97749 7.36185 6.32329 7.58105C6.65675 7.80025 6.92845 8.10469 7.13841 8.49438C7.33601 8.87189 7.43481 9.35899 7.43481 9.93134C7.43481 10.5037 7.33601 10.9786 7.15075 11.3683C6.9655 11.758 6.70615 12.0624 6.38504 12.2938C6.06394 12.5252 5.66874 12.6835 5.22413 12.7809C4.77952 12.8783 4.29786 12.9271 3.7668 12.9271H2.17363V16.7265H0V6.97217ZM2.18598 11.1004H3.63095C3.82856 11.1004 4.01381 11.0882 4.19906 11.0395C4.38431 11.003 4.54486 10.9421 4.69307 10.8569C4.84127 10.7716 4.95243 10.6498 5.03888 10.5037C5.12533 10.3576 5.17473 10.1627 5.17473 9.93134C5.17473 9.68779 5.11297 9.48077 5.00182 9.33464C4.89067 9.18851 4.74247 9.06673 4.55722 8.98149C4.37196 8.89624 4.17436 8.84753 3.95205 8.82318C3.72975 8.79882 3.5198 8.78665 3.30985 8.78665H2.19833V11.1004H2.18598Z" fill="#2E7AF6"/>
<path d="M8.21301 13.3775C8.21301 12.8417 8.31182 12.3668 8.50942 11.9284C8.70702 11.5022 8.96638 11.1247 9.31218 10.8202C9.65799 10.5158 10.0532 10.2722 10.5102 10.1139C10.9671 9.94343 11.4611 9.87036 11.9798 9.87036C12.4985 9.87036 12.9925 9.95561 13.4495 10.1139C13.9065 10.2844 14.314 10.5158 14.6475 10.8202C14.9933 11.1247 15.2526 11.5022 15.4502 11.9284C15.6478 12.3546 15.7466 12.8417 15.7466 13.3775C15.7466 13.9134 15.6478 14.3883 15.4502 14.8267C15.2526 15.2529 14.9933 15.6304 14.6475 15.9348C14.3017 16.2393 13.9065 16.4828 13.4495 16.6412C12.9925 16.8116 12.4985 16.8847 11.9798 16.8847C11.4611 16.8847 10.9671 16.7995 10.5102 16.6412C10.0532 16.4707 9.64564 16.2393 9.31218 15.9348C8.96638 15.6304 8.70702 15.2529 8.50942 14.8267C8.31182 14.3883 8.21301 13.9012 8.21301 13.3775ZM10.3002 13.3775C10.3002 13.8768 10.4484 14.2909 10.7448 14.6075C11.0412 14.9241 11.4488 15.0702 11.9798 15.0702C12.5109 15.0702 12.9184 14.9119 13.2148 14.6075C13.5112 14.2909 13.6595 13.889 13.6595 13.3775C13.6595 12.8783 13.5112 12.4642 13.2148 12.1476C12.9184 11.831 12.5109 11.6848 11.9798 11.6848C11.4488 11.6848 11.0412 11.8431 10.7448 12.1476C10.4484 12.4642 10.3002 12.8661 10.3002 13.3775Z" fill="#2E7AF6"/>
<path d="M16.0922 10.0288H18.3275L19.7108 14.2301H19.7355L20.8964 10.0288H23.1812L24.4409 14.2301H24.4656L25.7377 10.0288H27.8619L25.4413 16.7144H23.3788L21.9709 12.2695H21.9461L20.6864 16.7144H18.5745L16.0922 10.0288Z" fill="#2E7AF6"/>
<path d="M34.8894 15.5573C34.5559 15.9835 34.136 16.3001 33.6173 16.5315C33.1109 16.7629 32.5799 16.8725 32.0241 16.8725C31.5054 16.8725 31.0114 16.7873 30.5545 16.6289C30.0975 16.4585 29.6899 16.2271 29.3565 15.9226C29.0107 15.6182 28.7513 15.2407 28.5537 14.8145C28.3561 14.3883 28.2573 13.9011 28.2573 13.3653C28.2573 12.8295 28.3561 12.3546 28.5537 11.9162C28.7513 11.49 29.0107 11.1125 29.3565 10.808C29.6899 10.5036 30.0975 10.26 30.5545 10.1017C31.0114 9.93122 31.5054 9.85815 32.0241 9.85815C32.5058 9.85815 32.9504 9.9434 33.3456 10.1017C33.7408 10.2722 34.0743 10.5036 34.346 10.808C34.6177 11.1125 34.8276 11.49 34.9758 11.9162C35.124 12.3424 35.1981 12.8295 35.1981 13.3653V14.0107H30.3445C30.431 14.4004 30.6039 14.717 30.8879 14.9484C31.172 15.1798 31.5054 15.3016 31.9253 15.3016C32.2711 15.3016 32.5552 15.2285 32.8022 15.0702C33.0492 14.9119 33.2468 14.7292 33.4197 14.4857L34.8894 15.5573ZM33.1109 12.6225C33.1233 12.2693 32.9998 11.9771 32.7651 11.7335C32.5181 11.49 32.2094 11.356 31.8265 11.356C31.5919 11.356 31.3943 11.3925 31.209 11.4656C31.0361 11.5387 30.8756 11.6361 30.7521 11.7457C30.6286 11.8553 30.5298 11.9892 30.4557 12.1476C30.3816 12.2937 30.3445 12.452 30.3322 12.6225H33.1109Z" fill="#2E7AF6"/>
<path d="M36.4084 10.0287H38.5079V11.1003H38.5326C38.7549 10.6863 39.0266 10.3818 39.323 10.1748C39.6318 9.96778 40.0146 9.87036 40.484 9.87036C40.6075 9.87036 40.731 9.87037 40.8421 9.88254C40.9656 9.89472 41.0768 9.9069 41.1756 9.94343V11.831C41.0274 11.7823 40.8792 11.7457 40.731 11.7336C40.5828 11.7092 40.4346 11.697 40.274 11.697C39.8788 11.697 39.5577 11.7579 39.323 11.8675C39.0884 11.9771 38.9155 12.1354 38.7796 12.3303C38.6561 12.5251 38.5697 12.7687 38.5326 13.0366C38.4956 13.3167 38.4709 13.6089 38.4709 13.9499V16.7386H36.3713V10.0287H36.4084Z" fill="#2E7AF6"/>
<path d="M48.1904 15.5573C47.8569 15.9835 47.437 16.3001 46.9183 16.5315C46.412 16.7629 45.8809 16.8725 45.3252 16.8725C44.8064 16.8725 44.3124 16.7873 43.8555 16.6289C43.3985 16.4585 42.991 16.2271 42.6575 15.9226C42.3117 15.6182 42.0524 15.2407 41.8548 14.8145C41.6572 14.3883 41.5583 13.9011 41.5583 13.3653C41.5583 12.8295 41.6572 12.3546 41.8548 11.9162C42.0524 11.49 42.3117 11.1125 42.6575 10.808C42.991 10.5036 43.3985 10.26 43.8555 10.1017C44.3124 9.93122 44.8064 9.85815 45.3252 9.85815C45.8068 9.85815 46.2514 9.9434 46.6466 10.1017C47.0418 10.2722 47.3753 10.5036 47.647 10.808C47.9187 11.1125 48.1286 11.49 48.2769 11.9162C48.4251 12.3424 48.4992 12.8295 48.4992 13.3653V14.0107H43.6455C43.732 14.4004 43.9049 14.717 44.1889 14.9484C44.473 15.1798 44.8064 15.3016 45.2264 15.3016C45.5722 15.3016 45.8562 15.2285 46.1032 15.0702C46.3502 14.9119 46.5478 14.7292 46.7207 14.4857L48.1904 15.5573ZM46.412 12.6225C46.4243 12.2693 46.3008 11.9771 46.0662 11.7335C45.8192 11.49 45.5104 11.356 45.1276 11.356C44.8929 11.356 44.6953 11.3925 44.51 11.4656C44.3371 11.5387 44.1766 11.6361 44.0531 11.7457C43.9296 11.8553 43.8308 11.9892 43.7567 12.1476C43.6826 12.2937 43.6455 12.452 43.6332 12.6225H46.412Z" fill="#2E7AF6"/>
<path d="M56.8231 16.7143H54.8965V15.8375H54.8718C54.7854 15.9592 54.6742 16.081 54.5384 16.2028C54.4025 16.3246 54.242 16.4342 54.0691 16.5438C53.8838 16.6412 53.6862 16.7265 53.4639 16.7873C53.2416 16.8482 53.0193 16.8848 52.7846 16.8848C52.2783 16.8848 51.8213 16.7995 51.4138 16.629C51.0062 16.4585 50.648 16.215 50.364 15.9105C50.0676 15.6061 49.8453 15.2408 49.6847 14.8145C49.5242 14.3883 49.4501 13.9256 49.4501 13.4263C49.4501 12.9635 49.5242 12.5129 49.6724 12.0867C49.8206 11.6605 50.0182 11.283 50.2899 10.9542C50.5616 10.6254 50.8827 10.3575 51.2656 10.1626C51.6484 9.96778 52.0807 9.87036 52.5623 9.87036C52.9946 9.87036 53.4021 9.93125 53.785 10.0652C54.1678 10.1992 54.4766 10.4305 54.7113 10.7472H54.736V6.31445H56.8355V16.7143H56.8231ZM54.8965 13.3776C54.8965 12.8783 54.7483 12.4642 54.4519 12.1476C54.1555 11.831 53.7479 11.6849 53.2169 11.6849C52.6858 11.6849 52.2783 11.8432 51.9819 12.1476C51.6855 12.4642 51.5373 12.8661 51.5373 13.3776C51.5373 13.8769 51.6855 14.2909 51.9819 14.6075C52.2783 14.9241 52.6858 15.0703 53.2169 15.0703C53.7479 15.0703 54.1555 14.912 54.4519 14.6075C54.7607 14.2909 54.8965 13.8769 54.8965 13.3776Z" fill="#2E7AF6"/>
<path d="M62.6896 6.31445H64.7891V10.7472H64.8138C65.0608 10.4305 65.3696 10.1992 65.7401 10.0652C66.1229 9.93125 66.5181 9.87036 66.9627 9.87036C67.4444 9.87036 67.8767 9.96778 68.2595 10.1626C68.6424 10.3575 68.9635 10.6254 69.2352 10.9542C69.5069 11.283 69.7045 11.6605 69.8527 12.0867C70.0009 12.5129 70.075 12.9635 70.075 13.4263C70.075 13.9256 70.0009 14.4005 69.8403 14.8145C69.6798 15.2408 69.4575 15.6061 69.1611 15.9105C68.8647 16.215 68.5189 16.4585 68.1113 16.629C67.7037 16.7995 67.2468 16.8848 66.7404 16.8848C66.4934 16.8848 66.2711 16.8482 66.0612 16.7873C65.8512 16.7265 65.6536 16.6412 65.4684 16.5438C65.2831 16.4464 65.1226 16.3246 64.9991 16.2028C64.8632 16.081 64.752 15.9592 64.6656 15.8375H64.6409V16.7143H62.7143V6.31445H62.6896ZM64.6162 13.3776C64.6162 13.8769 64.7644 14.2909 65.0608 14.6075C65.3572 14.9241 65.7648 15.0703 66.2958 15.0703C66.8269 15.0703 67.2344 14.912 67.5308 14.6075C67.8273 14.2909 67.9755 13.889 67.9755 13.3776C67.9755 12.8783 67.8273 12.4642 67.5308 12.1476C67.2344 11.831 66.8269 11.6849 66.2958 11.6849C65.7648 11.6849 65.3572 11.8432 65.0608 12.1476C64.7644 12.4642 64.6162 12.8661 64.6162 13.3776Z" fill="#2E7AF6"/>
<path d="M75.1262 17.8104C74.9903 18.1635 74.8545 18.4802 74.7186 18.7602C74.5828 19.0403 74.4222 19.2717 74.2246 19.4544C74.027 19.637 73.7677 19.7832 73.4589 19.8806C73.1501 19.978 72.7426 20.0267 72.2486 20.0267C71.7052 20.0267 71.1865 19.9415 70.6801 19.7832L70.9642 18.0905C71.2853 18.2244 71.6064 18.2975 71.9398 18.2975C72.1745 18.2975 72.3597 18.2731 72.5079 18.2244C72.6561 18.1757 72.7796 18.1027 72.8784 18.0052C72.9772 17.9078 73.0637 17.786 73.1254 17.6521C73.1872 17.5181 73.2613 17.3598 73.3354 17.165L73.4836 16.7753L70.5072 10.0288H72.7673L74.5087 14.4493H74.5334L76.0277 10.0288H78.1767L75.1262 17.8104Z" fill="#2E7AF6"/>
</svg>
