<?xml version="1.0" standalone="no"?>
<!DOCTYPE svg PUBLIC "-//W3C//DTD SVG 20010904//EN"
 "http://www.w3.org/TR/2001/REC-SVG-20010904/DTD/svg10.dtd">
<svg version="1.0" xmlns="http://www.w3.org/2000/svg"
 width="512.000000pt" height="512.000000pt" viewBox="0 0 512.000000 512.000000"
 preserveAspectRatio="xMidYMid meet">

<g transform="translate(0.000000,512.000000) scale(0.100000,-0.100000)"
fill="#000000" stroke="none">
<path d="M2300 5114 c-422 -54 -760 -169 -1086 -372 -176 -109 -294 -202 -443
-346 -395 -385 -643 -859 -743 -1416 -20 -110 -22 -160 -23 -410 0 -224 4
-308 17 -392 104 -636 412 -1183 898 -1590 376 -316 852 -518 1355 -577 134
-16 460 -13 605 4 471 59 922 251 1297 554 116 93 304 283 393 396 291 369
478 815 535 1275 17 145 20 471 4 605 -97 828 -566 1536 -1296 1954 -241 138
-559 248 -858 297 -97 15 -570 28 -655 18z m585 -218 c503 -73 979 -309 1330
-661 201 -201 340 -395 460 -640 274 -560 317 -1189 121 -1780 -84 -251 -233
-524 -394 -725 -391 -483 -923 -781 -1557 -872 -133 -19 -464 -16 -605 6 -271
42 -483 107 -715 221 -323 158 -615 395 -830 675 -252 326 -418 728 -476 1150
-19 137 -17 468 4 610 62 423 238 830 505 1165 72 90 257 275 347 347 378 301
835 481 1320 522 91 7 388 -4 490 -18z"/>
<path d="M1881 4196 c-24 -13 -48 -31 -53 -40 -7 -12 -18 -15 -42 -11 -39 8
-59 -12 -59 -56 0 -27 -3 -29 -39 -29 -51 0 -67 -29 -45 -83 l15 -35 -36 -9
c-32 -7 -37 -13 -40 -40 -2 -18 4 -45 12 -62 23 -44 20 -54 -24 -74 -35 -16
-40 -23 -40 -50 1 -51 23 -78 81 -102 l54 -22 35 22 c64 40 91 44 127 21 18
-12 33 -27 33 -33 0 -17 10 -16 34 2 29 22 61 18 95 -11 25 -21 34 -24 46 -14
11 9 23 7 57 -8 35 -15 43 -24 45 -48 0 -16 11 -36 24 -47 12 -10 23 -29 24
-42 1 -23 17 -42 57 -65 14 -8 24 -4 50 24 18 18 51 45 73 58 22 14 49 35 59
47 11 11 27 21 37 21 9 0 46 7 80 16 42 11 88 15 136 12 68 -5 72 -4 62 14 -6
10 -21 24 -34 30 l-24 11 35 45 c51 67 44 99 -29 130 -22 10 -27 17 -21 30 4
9 9 36 12 59 4 39 2 42 -25 45 -25 3 -28 6 -25 36 3 27 0 34 -17 39 -12 3 -21
11 -21 18 0 25 -31 46 -59 40 -24 -5 -26 -3 -27 26 -1 34 -18 50 -49 48 -11
-1 -28 1 -38 6 -10 4 -30 5 -45 2 -20 -4 -31 -1 -40 13 -9 14 -19 17 -51 13
-31 -4 -47 0 -72 18 -20 14 -46 22 -68 22 -19 -1 -45 6 -58 14 -13 9 -53 17
-91 19 -56 3 -74 0 -111 -20z"/>
<path d="M1730 3579 c-75 -33 -90 -35 -90 -13 0 8 -5 12 -10 9 -6 -4 -7 -11
-4 -17 5 -8 1 -9 -10 -5 -10 4 -21 7 -24 7 -4 0 0 5 8 10 12 8 9 10 -11 10
-15 0 -32 -7 -39 -15 -8 -10 -30 -15 -65 -15 -35 0 -57 -5 -65 -15 -7 -8 -21
-15 -31 -15 -10 0 -21 -4 -24 -10 -3 -5 -20 -10 -36 -10 -41 0 -66 -15 -84
-50 -25 -49 -20 -56 53 -74 37 -9 77 -16 89 -16 31 0 53 -10 53 -25 0 -13 28
-27 46 -24 23 4 34 -3 34 -20 0 -22 19 -31 66 -31 24 0 34 -5 34 -15 0 -31 43
-74 91 -91 26 -10 46 -21 43 -25 -2 -4 0 -10 6 -14 5 -3 10 -1 10 5 0 6 5 8
12 4 6 -4 30 -9 52 -10 23 -2 62 -6 87 -10 34 -4 48 -2 58 10 18 21 43 20 72
-3 13 -10 34 -21 47 -25 12 -4 22 -12 22 -17 0 -5 5 -9 10 -9 6 0 10 5 10 11
0 6 20 34 45 62 l45 51 -30 19 c-17 10 -30 21 -30 22 0 2 16 21 35 42 39 43
38 65 -3 97 -13 11 -31 34 -38 52 -8 18 -23 38 -34 44 -13 7 -20 21 -20 39 0
28 -26 61 -48 61 -6 0 -18 -13 -27 -30 -17 -33 -41 -39 -49 -12 -3 9 -5 19 -4
22 1 3 -4 15 -11 28 -14 25 -39 28 -67 7 -27 -20 -48 -18 -81 8 l-28 23 -65
-27z"/>
<path d="M2565 3515 c-5 -2 -36 -11 -67 -20 -31 -10 -67 -28 -79 -41 -12 -13
-30 -24 -39 -24 -21 0 -120 -104 -120 -126 0 -8 -14 -27 -31 -42 l-32 -26 34
-29 c21 -19 29 -31 22 -34 -7 -3 -13 -9 -13 -15 0 -5 -20 -33 -45 -60 -25 -28
-45 -60 -45 -72 0 -57 41 -145 67 -146 7 0 27 13 45 29 18 16 51 37 73 47 30
15 42 27 50 55 12 45 34 72 52 65 7 -3 24 0 38 6 23 10 30 21 26 42 -1 5 5 16
12 25 8 9 25 40 37 69 18 42 27 52 46 52 13 0 28 9 34 20 9 16 19 20 46 16 24
-2 37 1 41 10 3 9 22 14 57 14 28 0 61 3 74 7 22 5 23 9 18 62 -3 31 -5 59 -5
62 -1 10 -51 29 -77 29 -14 0 -34 5 -46 11 -19 10 -153 22 -173 14z"/>
<path d="M3450 3419 c-19 -12 -38 -26 -41 -31 -3 -5 -15 2 -27 16 -31 40 -81
36 -122 -11 -28 -32 -35 -35 -52 -24 -11 7 -32 10 -48 6 -33 -7 -87 -63 -96
-100 -6 -23 -8 -24 -27 -10 -12 8 -29 15 -38 15 -27 0 -77 -48 -84 -80 -6 -28
-8 -29 -50 -23 -40 5 -47 3 -74 -25 -25 -24 -31 -39 -31 -72 0 -27 -4 -40 -12
-39 -40 5 -72 -4 -94 -26 -22 -22 -24 -31 -20 -81 3 -43 10 -62 30 -83 15 -15
26 -39 26 -53 0 -15 5 -30 11 -34 7 -4 9 -23 6 -49 -9 -66 6 -79 90 -79 47 1
84 8 117 23 59 26 68 26 89 3 23 -26 21 -64 -7 -120 -13 -26 -38 -90 -56 -142
-27 -81 -33 -115 -38 -229 l-7 -133 -62 46 c-107 78 -212 186 -275 281 -39 60
-67 92 -83 97 -29 7 -31 5 -40 -43 -8 -45 10 -84 92 -195 52 -70 129 -146 216
-214 15 -12 27 -25 27 -29 0 -5 -44 -11 -97 -14 -151 -9 -308 -56 -487 -144
-93 -46 -135 -55 -161 -33 -32 27 -35 46 -15 114 28 98 36 201 17 212 -8 5
-18 19 -21 32 -7 20 -5 22 16 17 21 -5 31 2 68 50 31 41 48 54 59 49 43 -18
69 -16 95 10 14 15 33 40 41 57 14 26 20 29 48 24 26 -5 37 -2 57 20 14 15 30
43 36 63 l10 37 57 -3 c54 -3 58 -2 68 25 5 15 11 40 12 55 2 25 6 28 38 28
56 0 62 14 55 137 l-5 108 -40 36 c-26 24 -55 39 -81 43 -26 4 -40 11 -40 21
0 22 -95 19 -145 -4 -52 -24 -109 -82 -115 -117 -4 -21 -13 -31 -38 -38 -28
-8 -36 -6 -57 14 -25 24 -35 80 -14 80 7 0 9 15 5 43 -19 146 -23 157 -57 157
-10 0 -25 10 -33 21 -14 21 -16 21 -56 5 -45 -18 -96 -21 -105 -6 -8 14 -68
13 -99 -2 -26 -11 -42 -40 -32 -57 3 -5 -9 -9 -27 -8 -17 0 -45 -6 -62 -14
-26 -13 -30 -20 -29 -51 1 -33 -2 -37 -31 -42 -18 -4 -38 -13 -45 -21 -7 -8
-18 -15 -25 -15 -23 0 -48 -38 -41 -65 5 -21 3 -25 -14 -25 -11 0 -20 -5 -20
-10 0 -6 -10 -14 -23 -19 -13 -5 -28 -24 -35 -45 -12 -32 -12 -40 3 -62 15
-24 15 -26 -9 -55 -25 -29 -37 -99 -18 -99 5 0 17 -6 27 -14 19 -14 19 -15 1
-35 -12 -13 -20 -37 -20 -64 -1 -37 2 -44 30 -58 28 -14 30 -17 18 -34 -8 -10
-14 -40 -14 -67 0 -39 4 -50 24 -63 22 -15 24 -21 19 -74 -6 -65 7 -101 37
-101 15 0 20 -7 20 -30 0 -32 52 -100 76 -100 8 0 14 -4 14 -9 0 -5 3 -16 6
-25 4 -11 0 -16 -13 -16 -11 0 -39 -14 -62 -31 -39 -28 -42 -33 -40 -70 3 -31
-1 -42 -19 -55 -13 -9 -28 -38 -38 -70 l-16 -56 27 -28 26 -27 -30 -46 c-39
-57 -40 -89 -1 -119 29 -23 29 -23 15 -63 -19 -53 -19 -105 1 -133 8 -12 14
-30 13 -40 -4 -44 2 -82 16 -96 11 -11 14 -26 10 -48 -4 -23 0 -45 15 -73 11
-21 20 -44 20 -50 0 -15 49 -65 63 -65 7 0 18 5 25 12 7 7 12 9 12 4 0 -14 60
28 66 47 3 10 12 16 20 13 14 -5 54 42 54 64 0 9 4 9 16 -1 19 -16 34 0 67 71
11 25 22 39 24 33 9 -27 33 -11 54 36 20 43 26 48 44 41 18 -7 25 -3 38 20 9
15 20 45 25 66 7 36 10 39 39 36 40 -4 61 25 70 97 5 47 8 51 33 51 15 0 40
10 55 22 26 20 27 25 23 88 -3 60 -1 68 17 76 29 13 29 45 1 86 -24 36 -24 37
-5 54 28 26 23 43 -18 62 -25 11 -39 25 -40 38 -2 18 11 27 72 53 236 99 486
126 605 66 68 -35 246 -162 390 -279 127 -104 128 -105 164 -95 60 17 74 64
26 93 -17 9 -88 67 -158 128 -70 60 -175 146 -233 190 -120 91 -119 88 -119
246 0 80 36 252 53 252 5 0 23 -12 40 -26 20 -17 39 -24 54 -21 12 2 28 -2 34
-9 6 -8 22 -14 35 -14 13 0 24 -4 24 -8 0 -11 46 -32 70 -32 10 0 27 10 37 23
15 19 25 22 59 19 28 -3 57 3 87 16 41 18 46 24 49 57 3 36 4 37 45 40 68 5
97 24 98 65 0 27 5 35 20 38 41 8 81 33 99 62 15 27 16 31 2 36 -26 10 -19 19
34 39 54 21 65 36 50 65 -14 26 -14 27 20 34 30 6 80 46 80 65 0 5 -7 16 -15
24 -13 13 -11 16 10 21 38 10 61 51 48 86 -9 24 -8 32 7 45 15 14 19 32 18
103 -1 97 -10 118 -65 154 -106 68 -107 68 -161 66 -51 -2 -55 0 -75 31 -20
33 -21 34 -83 28 -53 -5 -64 -3 -79 13 -24 26 -71 25 -115 -1z"/>
</g>
</svg>
